<?xml version="1.0" encoding="utf-8"?>
<svg viewBox="18.149 36.251 402.267 376.694" width="402.267" height="376.694" xmlns="http://www.w3.org/2000/svg">
  <defs>
    <linearGradient gradientUnits="userSpaceOnUse" x1="227.314" y1="1.559" x2="227.314" y2="427.148" id="gradient-0" gradientTransform="matrix(0.884826, 0, 0, 0.884826, 0, 0)">
      <stop offset="0" style="stop-color: rgba(44, 62, 80, 1)"/>
      <stop offset="1" style="stop-color: rgba(8, 11, 14, 1)"/>
    </linearGradient>
  </defs>
  <rect y="1.379" width="402.267" height="376.572" style="stroke: url(#gradient-0); stroke-width: 8px; fill: rgb(46, 204, 113);" transform="matrix(1, -0.000303, 0, 1, 18.148821, 34.993614)" rx="69.873" ry="69.873"/>
  <g id="surface1" transform="matrix(2.584033, 0, 0, 2.584033, 54.806099, 62.815475)" style="">
    <path style=" stroke:none;fill-rule:nonzero;fill:#FFFFFF;fill-opacity:1;" d="M 81.269531 5.160156 C 81.011719 5.160156 80.734375 5.1875 80.476563 5.316406 L 42.382813 18.015625 C 41.367188 18.273438 40.636719 19.304688 40.636719 20.316406 L 40.636719 35.792969 L 42.699219 35.792969 C 47.519531 35.792969 52.035156 37.597656 55.078125 40.398438 C 55.335938 40.398438 55.378906 40.636719 55.636719 40.636719 L 55.636719 30.476563 L 75.953125 30.476563 L 75.953125 40.636719 L 56.667969 40.636719 C 59.710938 41.648438 62.191406 43.414063 63.96875 45.953125 C 64.472656 46.714844 64.980469 47.488281 65.238281 48.253906 L 76.191406 48.253906 L 76.191406 58.414063 L 67.539063 58.414063 C 67.539063 61.210938 67.332031 63.75 66.824219 66.03125 L 76.191406 66.03125 L 76.191406 76.191406 L 67.0625 76.191406 C 66.300781 79.492188 64.78125 81.804688 63.253906 83.332031 C 63.253906 83.589844 63.015625 83.550781 63.015625 83.808594 L 76.191406 83.808594 L 76.191406 93.96875 L 59.445313 93.96875 C 60.972656 94.730469 62.746094 95.527344 64.523438 96.03125 C 71.378906 98.570313 81.03125 102.09375 84.839844 111.746094 L 119.363281 111.746094 C 120.894531 111.746094 121.90625 110.734375 121.90625 109.207031 L 121.90625 20.316406 C 121.90625 19.304688 121.171875 18.273438 120.160156 18.015625 L 82.0625 5.316406 C 81.804688 5.1875 81.527344 5.160156 81.269531 5.160156 Z M 86.347656 30.476563 L 106.667969 30.476563 L 106.667969 40.636719 L 86.347656 40.636719 Z M 42.382813 40.636719 C 35.527344 40.894531 30.445313 42.917969 27.144531 46.984375 C 23.589844 51.804688 22.886719 59.207031 24.921875 68.09375 C 24.15625 69.105469 23.332031 70.824219 23.332031 72.855469 C 24.097656 76.925781 25.933594 79.523438 27.460938 80.792969 C 28.472656 84.601563 30.980469 87.835938 33.015625 89.363281 L 33.015625 92.699219 L 34.046875 93.175781 C 36.585938 94.703125 41.160156 96.507813 42.9375 96.507813 C 44.710938 96.507813 49.285156 94.445313 51.824219 93.175781 L 52.855469 92.699219 L 52.855469 89.683594 C 55.140625 87.90625 57.410156 84.601563 58.175781 80.792969 C 59.703125 79.523438 61.746094 76.933594 61.746094 73.890625 C 61.746094 71.855469 61.238281 70.097656 60.476563 68.570313 C 61.488281 65.019531 63.761719 55.140625 59.445313 49.046875 C 58.175781 47.273438 56.109375 45.425781 52.300781 44.921875 C 50.269531 42.382813 46.449219 40.636719 42.382813 40.636719 Z M 86.347656 48.253906 L 106.667969 48.253906 L 106.667969 58.414063 L 86.347656 58.414063 Z M 86.347656 66.03125 L 106.667969 66.03125 L 106.667969 76.191406 L 86.347656 76.191406 Z M 86.347656 83.808594 L 106.667969 83.808594 L 106.667969 93.96875 L 86.347656 93.96875 Z M 31.507813 97.300781 C 29.730469 98.570313 26.933594 99.523438 23.890625 100.792969 C 16.011719 103.839844 6.082031 107.429688 5.316406 119.363281 C 5.316406 120.128906 5.605469 120.605469 6.109375 121.109375 C 6.367188 121.617188 6.855469 121.90625 7.617188 121.90625 L 38.09375 121.90625 L 38.09375 119.363281 C 38.09375 112.003906 42.144531 105.398438 42.144531 105.398438 L 40.160156 101.109375 C 36.855469 100.097656 32.746094 98.046875 31.984375 97.539063 Z M 55.078125 97.300781 L 54.601563 97.539063 C 53.589844 98.046875 49.742188 100.097656 46.191406 101.109375 L 44.207031 105.398438 C 44.207031 105.398438 48.492188 112.003906 48.492188 119.363281 L 48.492188 121.90625 L 78.96875 121.90625 C 79.730469 121.90625 80.289063 121.617188 80.792969 121.109375 C 81.300781 120.605469 81.507813 119.871094 81.507813 119.363281 C 80.496094 107.429688 70.574219 103.589844 62.699219 100.792969 C 59.652344 99.78125 56.855469 98.570313 55.078125 97.300781 Z "/>
  </g>
</svg>