<?xml version="1.0" encoding="utf-8"?>
<svg viewBox="61.112 134.614 168.158 168.158" width="168.158" height="168.158" xmlns="http://www.w3.org/2000/svg">
  <circle style="fill: rgb(142, 68, 173);" cx="145.191" cy="218.693" r="84.079"/>
  <g id="surface1" transform="matrix(1, 0, 0, 1, 72.948647, 149.162231)">
    <path style=" stroke:none;fill-rule:nonzero;fill:#D6E5E5;fill-opacity:1;" d="M 57.148438 43 C 56.949219 39.875 56.898438 36.773438 56.699219 33.648438 C 56.550781 31.300781 56.449219 28.898438 57 26.601563 C 50.625 26.550781 44.226563 26.398438 37.851563 26.699219 C 36.625 26.75 35.375 26.773438 34.125 26.800781 C 34.050781 27.925781 33.925781 29 33.851563 30.125 C 33.625 34.699219 33.375 39.273438 33.226563 43.851563 C 33.074219 48.449219 33.226563 53.074219 33.523438 57.675781 C 33.699219 60.175781 33.898438 62.699219 33.949219 65.199219 C 33.949219 65.199219 33.976563 65.226563 33.976563 65.226563 C 39.023438 71.050781 52 73.476563 56.601563 65.875 C 56.75 65.625 56.976563 65.425781 57.199219 65.300781 C 57.226563 57.875 57.625 50.449219 57.148438 43 Z "/>
    <path style=" stroke:none;fill-rule:nonzero;fill:#3AB37C;fill-opacity:1;" d="M 48.601563 109.949219 C 48.449219 109 48.023438 108.050781 47.476563 107.273438 C 45.875 105 42.675781 103.625 40.601563 106.226563 C 40.050781 106.898438 38.898438 106.800781 38.425781 106.074219 C 37.125 104.050781 35.699219 100.625 32.773438 101.148438 C 31.273438 101.425781 29.851563 102.074219 29.726563 103.75 C 29.625 105.050781 29.925781 106.375 29.925781 107.699219 C 29.925781 108.398438 29.449219 109.175781 28.648438 109.175781 C 25.199219 109.226563 21.300781 111 21.425781 114.949219 C 21.425781 115.148438 21.398438 115.324219 21.351563 115.476563 C 22.074219 117.148438 23.300781 118.851563 25.324219 118.875 C 27.601563 118.898438 29.675781 117.875 31.550781 116.675781 C 32.050781 116.375 32.800781 116.324219 33.226563 116.773438 C 34.324219 117.925781 35.875 118.300781 37.425781 118.449219 C 38.800781 118.601563 40.476563 118.699219 41.824219 118.351563 C 44.699219 117.601563 46.351563 115.675781 46.199219 112.648438 C 46.175781 111.976563 46.699219 111.148438 47.476563 111.175781 C 48.523438 111.226563 48.773438 111 48.601563 109.949219 Z "/>
    <path style=" stroke:none;fill-rule:nonzero;fill:#3AB37C;fill-opacity:1;" d="M 83.199219 116.675781 C 83.101563 112.273438 78.101563 108.925781 74.601563 112.476563 C 73.773438 113.300781 72.300781 112.898438 72.199219 111.675781 C 72.050781 109.75 72.324219 106.476563 69.800781 105.925781 C 67.074219 105.324219 64.175781 106.75 62.351563 108.726563 C 61.75 109.375 60.675781 109.351563 60.175781 108.574219 C 58.425781 105.875 52.925781 102.75 50.351563 105.976563 C 50.273438 106.074219 50.175781 106.175781 50.074219 106.25 C 50.898438 107.699219 51.625 109.476563 51.351563 111.148438 C 51.125 112.574219 50.175781 113.476563 48.925781 113.800781 C 48.773438 115.601563 48.074219 117.25 46.949219 118.523438 C 47.324219 118.550781 47.675781 118.699219 47.949219 119.050781 C 50.101563 121.699219 54.726563 121.324219 57.574219 120.226563 C 59.148438 119.625 60.5 118.125 62.25 117.949219 C 64.125 117.773438 64.726563 120.101563 66.199219 120.398438 C 68.523438 120.898438 70.523438 120.949219 72.550781 119.648438 C 73.875 118.800781 75.101563 117.773438 76.773438 118.148438 C 78.125 118.449219 83.023438 119.675781 83.425781 117.375 C 83.300781 117.199219 83.199219 116.976563 83.199219 116.675781 Z "/>
    <path style=" stroke:none;fill-rule:nonzero;fill:#EF4823;fill-opacity:1;" d="M 25.898438 27.101563 C 22.824219 27.351563 19.5 27.050781 16.5 27.925781 C 16.398438 28.074219 16.273438 28.226563 16.125 28.324219 C 15.726563 29.625 15.601563 31.074219 15.449219 32.375 C 15.226563 34.101563 14.949219 35.800781 14.675781 37.5 C 14.101563 40.800781 13.375 44.148438 13.050781 47.5 C 12.449219 53.324219 12.324219 59.273438 10.625 64.898438 C 10.851563 65 11.074219 65.175781 11.226563 65.476563 C 12.800781 68.375 17.324219 69.226563 20.300781 69.425781 C 24.300781 69.699219 27.976563 67.699219 31.199219 65.449219 C 31.148438 59.125 30.351563 52.851563 30.449219 46.5 C 30.5 42.398438 30.824219 38.300781 30.976563 34.199219 C 31.023438 32.351563 31.175781 30.5 31.226563 28.675781 C 31.25 28.175781 31.300781 27.648438 31.351563 27.148438 C 31.351563 27.023438 31.375 26.925781 31.375 26.800781 C 29.550781 26.875 27.726563 26.949219 25.898438 27.101563 Z "/>
    <path style=" stroke:none;fill-rule:nonzero;fill:#D6E5E5;fill-opacity:1;" d="M 98.648438 21.050781 C 98.648438 19.851563 98.800781 18.574219 98.773438 17.351563 C 97.773438 17.398438 96.75 17.324219 95.726563 17.273438 C 94.25 17.175781 92.523438 16.949219 91.101563 17.398438 C 90.851563 17.476563 90.601563 17.574219 90.375 17.699219 C 90.425781 17.699219 90.300781 17.875 90.300781 18.050781 C 90.25 18.726563 90.351563 19.449219 90.449219 20.125 C 90.625 21.324219 90.898438 22.476563 91.125 23.675781 C 93.675781 23.675781 96.226563 23.648438 98.800781 23.648438 C 98.601563 22.773438 98.648438 21.75 98.648438 21.050781 Z "/>
    <path style=" stroke:none;fill-rule:nonzero;fill:#EF4823;fill-opacity:1;" d="M 84.050781 54.675781 C 83.425781 50.425781 83.074219 46.125 82.699219 41.851563 C 82.425781 38.75 82 35.800781 81.449219 32.75 C 81.148438 31.101563 80.375 28.101563 81.476563 26.476563 C 75.023438 26.523438 68.550781 26.550781 62.101563 26.601563 C 61.351563 26.601563 60.574219 26.601563 59.824219 26.601563 C 59.824219 26.601563 59.824219 26.601563 59.824219 26.625 C 58.898438 29.199219 59.375 32.273438 59.574219 34.925781 C 59.800781 38.023438 59.824219 41.148438 60.023438 44.25 C 60.476563 51.300781 59.976563 58.351563 59.976563 65.398438 C 59.976563 65.773438 59.851563 66.074219 59.675781 66.300781 C 63.25 69.449219 67.75 71.824219 72.523438 72.324219 C 77.824219 72.875 82.476563 70.574219 85.25 66.074219 C 85.226563 62.25 84.601563 58.449219 84.050781 54.675781 Z "/>
    <path style=" stroke:none;fill-rule:nonzero;fill:#D6E5E5;fill-opacity:1;" d="M 106.226563 60.75 C 105.625 58.925781 105.324219 57 104.75 55.148438 C 104.125 53.074219 103.398438 51.050781 102.699219 49.023438 C 101.976563 46.925781 101.523438 44.726563 101.074219 42.550781 C 100.625 40.398438 100.199219 38.25 99.800781 36.101563 C 99.574219 34.925781 99.125 33.773438 98.773438 32.625 C 98.25 30.800781 97.398438 28.351563 98.023438 26.398438 C 93.375 26.425781 88.75 26.449219 84.101563 26.476563 C 84.351563 26.898438 84.351563 27.449219 83.875 27.925781 C 83.851563 27.949219 83.851563 27.949219 83.824219 27.949219 C 83.824219 27.976563 83.824219 28 83.824219 28.023438 C 83.800781 28.175781 83.773438 28.300781 83.773438 28.449219 C 83.773438 29.050781 83.800781 29.648438 83.875 30.226563 C 84.023438 31.476563 84.25 32.699219 84.5 33.925781 C 85.101563 36.925781 85.351563 39.976563 85.601563 43.023438 C 85.949219 47.148438 86.351563 51.25 86.949219 55.351563 C 87.449219 58.824219 88 62.300781 88 65.824219 C 89.398438 66.875 90.699219 68.125 92.25 68.925781 C 94.25 69.976563 96.199219 70.550781 98.476563 70.375 C 102.226563 70.074219 105.648438 67.925781 107.476563 64.648438 C 107.300781 63.300781 106.625 61.925781 106.226563 60.75 Z "/>
    <path style=" stroke:none;fill-rule:nonzero;fill:#FEBF10;fill-opacity:1;" d="M 118.976563 108.125 C 118.851563 105.25 118.949219 102.351563 118.949219 99.476563 C 118.949219 94.800781 119.175781 90.050781 118.875 85.398438 C 118.675781 82.175781 118.375 78.976563 118.300781 75.75 C 118.273438 74.300781 118.226563 72.824219 118.425781 71.375 C 118.476563 70.898438 118.574219 70.375 118.773438 69.898438 C 115.449219 69.898438 112.300781 68.726563 109.449219 67.050781 C 109.351563 67.101563 109.25 67.125 109.125 67.125 C 106.824219 70.425781 103.050781 72.773438 99 73.101563 C 96.398438 73.300781 94.050781 72.875 91.699219 71.773438 C 89.925781 70.925781 88.5 69.625 86.925781 68.449219 C 83.625 73.023438 78.625 75.550781 72.824219 75.125 C 67.351563 74.726563 62.148438 72.148438 58.023438 68.574219 C 51.976563 75.976563 39.148438 74.074219 32.648438 67.824219 C 28.726563 70.523438 24.351563 72.648438 19.476563 72.148438 C 18.976563 72.101563 18.449219 72.023438 17.898438 71.949219 C 17.925781 75.226563 18.425781 78.476563 18.648438 81.75 C 18.898438 85.601563 19.148438 89.476563 19.449219 93.324219 C 19.773438 97.226563 19.925781 101.101563 19.925781 105.023438 C 19.925781 106.824219 19.726563 108.851563 19.851563 110.800781 C 21.351563 108.425781 24.125 106.949219 27.101563 106.574219 C 26.976563 105.101563 26.800781 103.601563 27.25 102.199219 C 27.949219 100.023438 30.050781 98.898438 32.199219 98.523438 C 35.949219 97.851563 38.023438 100.449219 39.824219 103.226563 C 42.449219 101.375 45.949219 102.023438 48.324219 104.148438 C 51.699219 100.023438 58.199219 102.324219 61.449219 105.851563 C 63.976563 103.75 67.523438 102.398438 70.675781 103.398438 C 73.550781 104.324219 74.351563 106.601563 74.699219 109.125 C 76.726563 108.074219 79.101563 107.949219 81.273438 109.050781 C 82.851563 109.851563 84.074219 111.101563 84.898438 112.574219 C 84.25 106.875 84.75 101.074219 84.226563 95.351563 C 83.925781 92.101563 83.625 88.800781 83.050781 85.574219 C 82.523438 82.574219 81.851563 79.648438 81.949219 76.601563 L 81.949219 76.476563 C 81.949219 76.351563 81.949219 76.226563 81.976563 76.101563 C 82.023438 75.226563 82.898438 74.898438 83.648438 75.050781 C 83.773438 74.949219 83.925781 74.851563 84.125 74.800781 C 86.773438 74 89.523438 74.199219 92.25 74.375 C 94.324219 74.5 96.300781 74.425781 98.351563 74.273438 C 101.773438 74.050781 107.125 73.550781 108.050781 77.898438 C 108.324219 79.25 108.199219 80.625 108.148438 82 C 108.101563 83.375 108.273438 84.75 108.351563 86.125 C 108.523438 89.449219 108.625 92.773438 108.824219 96.074219 C 109.226563 102.324219 109.75 108.574219 110.550781 114.800781 C 113.023438 114.023438 115.824219 113.449219 118.300781 113.976563 C 118.398438 114 118.476563 114.023438 118.550781 114.050781 C 118.550781 114.023438 118.574219 114 118.574219 113.976563 C 118.75 113.25 119 112.5 119 111.75 C 119.101563 110.523438 119.023438 109.324219 118.976563 108.125 Z M 66.574219 81.898438 C 66.300781 85.75 66.425781 89.601563 66.425781 93.449219 C 66.425781 94.824219 64.75 95.273438 64.023438 94.550781 C 62.175781 96.125 59.074219 96.125 56.824219 96.101563 C 54.101563 96.050781 51.375 95.601563 48.648438 95.699219 C 45.773438 95.800781 42.925781 96.148438 40.050781 96 C 37.726563 95.875 34.648438 95.625 33.25 93.476563 C 33.050781 93.324219 32.851563 93.101563 32.75 92.773438 C 31.699219 89.550781 32.699219 86.273438 32.425781 82.976563 C 32.273438 81.074219 31.199219 78.601563 32.523438 76.898438 C 32.601563 76.800781 32.675781 76.726563 32.75 76.675781 C 32.851563 76.148438 33.226563 75.699219 33.949219 75.699219 C 38.675781 75.699219 43.375 75.976563 48.101563 76.101563 C 52.699219 76.226563 57.300781 76.074219 61.875 76.398438 C 63.351563 76.5 65.226563 76.699219 66.023438 78.175781 C 66.648438 79.375 66.675781 80.574219 66.574219 81.898438 Z "/>
    <path style=" stroke:none;fill-rule:nonzero;fill:#EF4823;fill-opacity:1;" d="M 126.574219 61.875 C 126.175781 61.398438 126.125 60.675781 126.425781 60.175781 C 125.601563 57.550781 124.125 55.226563 122.75 52.824219 C 121.074219 49.925781 120.023438 46.875 118.800781 43.773438 C 117.601563 40.675781 116.5 37.550781 115.125 34.523438 C 113.976563 31.976563 112.726563 29.226563 112.675781 26.375 L 110.5 26.375 C 107.273438 26.375 104.074219 26.375 100.851563 26.398438 C 100.851563 26.648438 100.75 26.925781 100.574219 27.175781 C 100.273438 27.601563 100.699219 29.351563 100.851563 29.949219 C 101.175781 31.273438 101.574219 32.574219 101.976563 33.851563 C 103.074219 37.425781 103.5 41.25 104.351563 44.898438 C 105.324219 48.976563 107.101563 52.824219 108.023438 56.925781 C 108.550781 59.273438 109.773438 61.75 110.074219 64.226563 C 112.851563 65.949219 116.125 67.476563 119.449219 67.101563 C 122.023438 66.800781 124 65.273438 125.601563 63.375 C 125.550781 63.050781 125.648438 62.675781 126 62.351563 C 126.226563 62.175781 126.398438 62.023438 126.574219 61.875 Z "/>
    <path style=" stroke:none;fill-rule:nonzero;fill:#BCBCBC;fill-opacity:1;" d="M 63.625 79.523438 C 63.273438 79.101563 62.324219 79.148438 61.824219 79.125 C 60.851563 79.050781 59.851563 79 58.875 78.976563 C 54.699219 78.875 50.523438 78.925781 46.351563 78.773438 C 42.5 78.625 38.625 78.449219 34.773438 78.425781 C 34.726563 78.523438 34.675781 78.625 34.601563 78.699219 C 34.851563 78.375 34.648438 78.625 34.648438 78.824219 C 34.648438 79 34.675781 79.199219 34.675781 79.375 C 34.726563 79.875 34.800781 80.375 34.898438 80.875 C 35.074219 81.824219 35.226563 82.773438 35.226563 83.75 C 35.226563 85.851563 34.773438 88.101563 35.023438 90.226563 C 35.273438 90.425781 35.425781 90.75 35.425781 91.175781 L 35.425781 91.726563 C 35.425781 91.726563 35.449219 91.75 35.449219 91.75 C 36.425781 93.398438 39.675781 93.25 41.324219 93.25 C 43.773438 93.25 46.199219 92.949219 48.625 92.898438 C 51.074219 92.851563 53.550781 93.226563 56 93.273438 C 57.773438 93.324219 61.25 93.699219 62.523438 92.101563 C 62.851563 91.675781 63.273438 91.550781 63.675781 91.625 C 63.625 88.574219 63.550781 85.523438 63.800781 82.5 C 63.851563 81.726563 64.199219 80.226563 63.625 79.523438 Z "/>
    <path style=" stroke:none;fill-rule:nonzero;fill:#BCBCBC;fill-opacity:1;" d="M 106.199219 97.675781 C 105.976563 94.648438 105.875 91.648438 105.75 88.625 C 105.625 85.949219 105.425781 83.324219 105.5 80.648438 C 105.523438 79.726563 105.675781 78.300781 105.023438 77.550781 C 104.699219 77.175781 103.851563 77.074219 103.398438 77.023438 C 101.625 76.773438 99.800781 76.925781 98.023438 77.050781 C 96.175781 77.175781 94.398438 77.226563 92.550781 77.101563 C 90.101563 76.949219 87.449219 76.648438 85.050781 77.375 C 84.925781 77.425781 84.800781 77.425781 84.675781 77.449219 C 84.675781 80.425781 85.574219 83.300781 85.976563 86.226563 C 86.398438 89.324219 86.773438 92.449219 87.050781 95.574219 C 87.574219 101.875 86.898438 108.226563 87.976563 114.476563 C 88.050781 114.898438 87.949219 115.226563 87.75 115.449219 L 97.324219 115.449219 C 99.523438 115.449219 101.699219 115.324219 103.875 115.25 C 104.875 115.226563 105.898438 115.175781 106.898438 115.226563 C 107.175781 115.25 107.550781 115.300781 107.898438 115.300781 C 107.101563 109.425781 106.625 103.550781 106.199219 97.675781 Z "/>
    <path style=" stroke:none;fill-rule:nonzero;fill:#000000;fill-opacity:1;" d="M 66.023438 78.175781 C 65.25 76.675781 63.351563 76.5 61.875 76.398438 C 57.300781 76.074219 52.675781 76.25 48.101563 76.101563 C 43.375 75.949219 38.675781 75.699219 33.949219 75.699219 C 33.226563 75.699219 32.851563 76.148438 32.75 76.675781 C 32.675781 76.75 32.601563 76.824219 32.523438 76.898438 C 31.226563 78.601563 32.273438 81.074219 32.425781 82.976563 C 32.699219 86.25 31.699219 89.550781 32.75 92.773438 C 32.851563 93.101563 33.023438 93.324219 33.25 93.476563 C 34.648438 95.625 37.726563 95.875 40.050781 96 C 42.925781 96.148438 45.773438 95.800781 48.648438 95.699219 C 51.375 95.601563 54.101563 96.050781 56.824219 96.101563 C 59.074219 96.148438 62.175781 96.148438 64.023438 94.550781 C 64.75 95.273438 66.425781 94.824219 66.425781 93.449219 C 66.425781 89.601563 66.300781 85.726563 66.574219 81.898438 C 66.675781 80.574219 66.648438 79.375 66.023438 78.175781 Z M 63.800781 82.550781 C 63.550781 85.574219 63.648438 88.625 63.675781 91.675781 C 63.273438 91.601563 62.851563 91.726563 62.523438 92.148438 C 61.25 93.75 57.773438 93.375 56 93.324219 C 53.550781 93.25 51.074219 92.898438 48.625 92.949219 C 46.175781 93 43.75 93.273438 41.324219 93.300781 C 39.699219 93.300781 36.449219 93.449219 35.449219 91.800781 C 35.449219 91.800781 35.425781 91.773438 35.425781 91.773438 L 35.425781 91.226563 C 35.425781 90.800781 35.25 90.476563 35.023438 90.273438 C 34.773438 88.148438 35.226563 85.898438 35.226563 83.800781 C 35.226563 82.824219 35.074219 81.875 34.898438 80.925781 C 34.824219 80.425781 34.75 79.925781 34.675781 79.425781 C 34.648438 79.25 34.648438 79.050781 34.648438 78.875 C 34.648438 78.648438 34.824219 78.425781 34.601563 78.75 C 34.675781 78.648438 34.726563 78.574219 34.773438 78.476563 C 38.648438 78.5 42.5 78.675781 46.351563 78.824219 C 50.523438 78.976563 54.699219 78.925781 58.875 79.023438 C 59.851563 79.050781 60.851563 79.101563 61.824219 79.175781 C 62.300781 79.199219 63.25 79.148438 63.625 79.574219 C 64.199219 80.226563 63.851563 81.726563 63.800781 82.550781 Z "/>
    <path style=" stroke:none;fill-rule:nonzero;fill:#000000;fill-opacity:1;" d="M 129.375 60.550781 C 128.726563 57.574219 127.175781 54.925781 125.648438 52.300781 C 124.851563 50.949219 124.050781 49.601563 123.398438 48.175781 C 122.699219 46.601563 122.199219 44.898438 121.574219 43.273438 C 120.425781 40.273438 119.398438 37.25 118.074219 34.324219 C 116.851563 31.601563 115.324219 28.699219 115.449219 25.648438 C 115.476563 25.074219 115.199219 24.699219 114.800781 24.523438 C 114.601563 24.023438 114.148438 23.625 113.476563 23.625 L 112.476563 23.625 C 112.476563 23.625 112.449219 23.625 112.449219 23.625 C 108.949219 23.625 105.425781 23.625 101.925781 23.625 C 101.875 23.398438 101.726563 23.175781 101.523438 23 C 101.476563 22.699219 101.449219 22.398438 101.449219 22.101563 C 101.398438 21.300781 101.425781 20.523438 101.449219 19.726563 C 101.476563 18.398438 101.648438 17 101.476563 15.699219 C 101.351563 14.75 100.550781 14.300781 99.648438 14.5 C 97.949219 14.898438 96 14.523438 94.273438 14.449219 C 92.449219 14.375 90.601563 14.449219 88.976563 15.375 C 86.648438 16.699219 87.625 20.425781 88.226563 22.949219 C 88.101563 23.148438 88.023438 23.425781 88.023438 23.675781 C 80.476563 23.699219 72.925781 23.75 65.375 23.824219 C 57.273438 23.898438 49.175781 23.726563 41.074219 23.824219 C 37.074219 23.875 33.050781 24.074219 29.050781 24.175781 C 25.550781 24.273438 21.949219 24.375 18.449219 24.75 C 17.324219 24.875 16.226563 25.101563 15.148438 25.449219 C 14.824219 25.550781 14.601563 25.75 14.476563 25.949219 C 13.675781 26.476563 13.523438 27.601563 13.324219 28.601563 C 12.925781 30.449219 12.726563 32.351563 12.523438 34.226563 C 12.324219 35.898438 11.898438 37.601563 11.625 39.273438 C 11.324219 41.125 11.023438 42.976563 10.699219 44.824219 C 9.476563 51.375 10.050781 58.226563 7.898438 64.625 C 7.601563 65.5 8.148438 66.273438 8.824219 66.550781 C 8.851563 66.699219 8.898438 66.851563 8.976563 67.023438 C 10.175781 69.25 12.648438 70.550781 15.226563 71.300781 C 15.148438 74.851563 15.699219 78.375 15.976563 81.925781 C 16.273438 85.949219 16.5 89.976563 16.824219 93.976563 C 17.148438 97.875 17.25 101.773438 17.25 105.675781 C 17.25 108.699219 16.773438 112.148438 18.074219 115 C 18.175781 115.226563 18.324219 115.425781 18.523438 115.574219 C 18.550781 115.625 18.550781 115.699219 18.574219 115.75 C 19.601563 118.601563 21.523438 121.074219 24.699219 121.523438 C 27.324219 121.898438 29.976563 120.824219 32.226563 119.5 C 35 121.601563 39.601563 121.675781 42.773438 120.949219 C 43.773438 120.726563 44.648438 120.351563 45.425781 119.851563 C 45.425781 120.074219 45.523438 120.324219 45.726563 120.574219 C 48.476563 123.949219 53.101563 124.175781 57.050781 123.273438 C 59.050781 122.824219 60.5 121.550781 62.351563 120.773438 C 62.425781 120.851563 62.523438 120.925781 62.601563 121 C 63 121.398438 63.375 121.824219 63.773438 122.226563 C 64.675781 123.125 66.199219 123.273438 67.425781 123.375 C 69.925781 123.625 72.023438 123.375 74.125 121.925781 C 74.550781 121.625 75.449219 120.75 76 120.800781 C 76.875 120.851563 77.726563 121.25 78.601563 121.351563 C 81.550781 121.699219 85.148438 121.148438 86 118.175781 L 98.425781 118.175781 C 100.625 118.175781 102.800781 118 105 117.949219 C 106.375 117.898438 107.800781 118.125 109.125 117.875 C 109.375 117.976563 109.699219 117.976563 110.023438 117.875 C 112.375 117.050781 115.300781 116.125 117.800781 116.675781 C 118.351563 116.800781 118.773438 116.601563 119.050781 116.300781 C 119.851563 116.726563 121.199219 116.25 121.199219 115.023438 C 121.199219 115.898438 121.449219 114.476563 121.5 114.273438 C 121.625 113.773438 121.675781 113.25 121.726563 112.726563 C 121.851563 111.523438 121.824219 110.300781 121.773438 109.101563 C 121.675781 106.476563 121.675781 103.824219 121.675781 101.199219 C 121.675781 96.148438 121.898438 91.050781 121.648438 86 C 121.523438 83.125 121.226563 80.273438 121.101563 77.398438 C 121.023438 75.875 120.976563 74.375 121.023438 72.851563 C 121.050781 72.351563 121.101563 71.875 121.175781 71.398438 C 121.175781 71.375 121.226563 71.175781 121.25 71.074219 C 121.773438 70.648438 121.773438 70.023438 121.523438 69.523438 C 124.574219 68.648438 127.074219 66.25 128.824219 63.675781 C 129.175781 63.148438 129.175781 62.550781 128.949219 62.074219 C 129.351563 61.699219 129.476563 61.074219 129.375 60.550781 Z M 90.300781 18.074219 C 90.324219 17.875 90.425781 17.726563 90.375 17.726563 C 90.601563 17.574219 90.851563 17.5 91.101563 17.425781 C 92.523438 16.949219 94.273438 17.199219 95.726563 17.300781 C 96.75 17.351563 97.75 17.425781 98.773438 17.375 C 98.773438 18.601563 98.648438 19.875 98.648438 21.074219 C 98.648438 21.773438 98.601563 22.800781 98.800781 23.675781 C 96.25 23.675781 93.699219 23.699219 91.125 23.699219 C 90.898438 22.523438 90.648438 21.351563 90.449219 20.148438 C 90.375 19.476563 90.25 18.75 90.300781 18.074219 Z M 83.800781 28.023438 C 83.800781 28 83.800781 27.976563 83.800781 27.949219 C 83.800781 27.949219 83.824219 27.925781 83.851563 27.925781 C 84.324219 27.449219 84.351563 26.898438 84.074219 26.476563 C 88.726563 26.449219 93.351563 26.425781 98 26.398438 C 97.375 28.351563 98.226563 30.800781 98.75 32.625 C 99.074219 33.773438 99.550781 34.925781 99.773438 36.101563 C 100.175781 38.25 100.601563 40.398438 101.050781 42.550781 C 101.5 44.726563 101.976563 46.925781 102.675781 49.023438 C 103.375 51.074219 104.101563 53.101563 104.726563 55.148438 C 105.273438 57 105.601563 58.925781 106.199219 60.75 C 106.601563 61.925781 107.273438 63.324219 107.425781 64.648438 C 105.601563 67.949219 102.148438 70.074219 98.425781 70.375 C 96.148438 70.550781 94.175781 69.976563 92.199219 68.925781 C 90.648438 68.125 89.351563 66.875 87.949219 65.824219 C 87.949219 62.300781 87.425781 58.824219 86.898438 55.351563 C 86.300781 51.25 85.898438 47.148438 85.550781 43.023438 C 85.300781 39.976563 85.050781 36.925781 84.449219 33.925781 C 84.199219 32.699219 83.976563 31.476563 83.824219 30.226563 C 83.75 29.625 83.726563 29.050781 83.726563 28.449219 C 83.75 28.300781 83.773438 28.148438 83.800781 28.023438 Z M 59.800781 26.625 C 59.800781 26.625 59.800781 26.601563 59.800781 26.625 C 60.574219 26.601563 61.324219 26.601563 62.101563 26.601563 C 68.550781 26.550781 75.023438 26.523438 81.476563 26.476563 C 80.375 28.101563 81.175781 31.074219 81.449219 32.75 C 82 35.800781 82.425781 38.75 82.699219 41.851563 C 83.074219 46.125 83.425781 50.425781 84.050781 54.675781 C 84.601563 58.476563 85.25 62.273438 85.226563 66.101563 C 82.425781 70.601563 77.773438 72.898438 72.5 72.351563 C 67.726563 71.851563 63.226563 69.476563 59.648438 66.324219 C 59.851563 66.101563 59.949219 65.800781 59.949219 65.425781 C 59.949219 58.375 60.449219 51.324219 60 44.273438 C 59.800781 41.175781 59.773438 38.050781 59.550781 34.949219 C 59.351563 32.273438 58.875 29.199219 59.800781 26.625 Z M 33.226563 43.851563 C 33.375 39.273438 33.625 34.699219 33.851563 30.125 C 33.898438 29 34.050781 27.925781 34.125 26.800781 C 35.375 26.773438 36.601563 26.75 37.851563 26.699219 C 44.226563 26.425781 50.625 26.574219 57 26.601563 C 56.449219 28.898438 56.550781 31.300781 56.699219 33.648438 C 56.898438 36.773438 56.949219 39.875 57.148438 43 C 57.625 50.449219 57.226563 57.851563 57.199219 65.300781 C 56.949219 65.425781 56.726563 65.625 56.601563 65.875 C 52 73.449219 39.023438 71.050781 33.976563 65.226563 C 33.976563 65.226563 33.949219 65.199219 33.949219 65.199219 C 33.898438 62.675781 33.699219 60.175781 33.523438 57.675781 C 33.226563 53.074219 33.074219 48.476563 33.226563 43.851563 Z M 11.199219 65.5 C 11.050781 65.199219 10.824219 65.023438 10.601563 64.925781 C 12.300781 59.273438 12.425781 53.351563 13.023438 47.523438 C 13.375 44.175781 14.101563 40.824219 14.648438 37.523438 C 14.949219 35.800781 15.226563 34.125 15.425781 32.398438 C 15.574219 31.101563 15.699219 29.625 16.101563 28.351563 C 16.25 28.226563 16.375 28.101563 16.476563 27.949219 C 19.476563 27.074219 22.773438 27.375 25.875 27.125 C 27.699219 26.976563 29.523438 26.925781 31.351563 26.875 C 31.351563 27 31.324219 27.101563 31.324219 27.226563 C 31.273438 27.726563 31.199219 28.25 31.199219 28.75 C 31.148438 30.601563 31.023438 32.449219 30.949219 34.273438 C 30.800781 38.375 30.476563 42.476563 30.425781 46.574219 C 30.351563 52.898438 31.125 59.199219 31.175781 65.523438 C 27.949219 67.75 24.273438 69.773438 20.273438 69.5 C 17.300781 69.226563 12.773438 68.398438 11.199219 65.5 Z M 46.199219 112.675781 C 46.351563 115.699219 44.699219 117.625 41.824219 118.375 C 40.476563 118.726563 38.800781 118.601563 37.425781 118.476563 C 35.875 118.324219 34.324219 117.949219 33.226563 116.800781 C 32.800781 116.351563 32.023438 116.375 31.550781 116.699219 C 29.675781 117.898438 27.601563 118.925781 25.324219 118.898438 C 23.324219 118.875 22.074219 117.199219 21.351563 115.5 C 21.398438 115.351563 21.425781 115.175781 21.425781 114.976563 C 21.324219 111.023438 25.226563 109.25 28.648438 109.199219 C 29.425781 109.199219 29.925781 108.425781 29.925781 107.726563 C 29.898438 106.425781 29.625 105.101563 29.726563 103.773438 C 29.851563 102.101563 31.25 101.449219 32.773438 101.175781 C 35.699219 100.648438 37.148438 104.074219 38.425781 106.101563 C 38.898438 106.824219 40.050781 106.925781 40.601563 106.25 C 42.675781 103.648438 45.898438 105.023438 47.476563 107.300781 C 48.023438 108.074219 48.449219 109.023438 48.601563 109.976563 C 48.773438 111.050781 48.523438 111.25 47.449219 111.226563 C 46.699219 111.175781 46.148438 111.976563 46.199219 112.675781 Z M 76.773438 118.175781 C 75.101563 117.800781 73.875 118.824219 72.550781 119.675781 C 70.523438 120.976563 68.5 120.925781 66.199219 120.425781 C 64.75 120.101563 64.125 117.800781 62.25 117.976563 C 60.5 118.125 59.148438 119.648438 57.574219 120.25 C 54.726563 121.351563 50.125 121.699219 47.949219 119.074219 C 47.675781 118.726563 47.300781 118.574219 46.949219 118.550781 C 48.074219 117.273438 48.75 115.648438 48.925781 113.824219 C 50.175781 113.5 51.125 112.601563 51.351563 111.175781 C 51.625 109.5 50.898438 107.699219 50.074219 106.273438 C 50.175781 106.199219 50.273438 106.125 50.351563 106 C 52.925781 102.773438 58.425781 105.925781 60.175781 108.601563 C 60.675781 109.351563 61.75 109.375 62.351563 108.75 C 64.175781 106.773438 67.074219 105.351563 69.800781 105.949219 C 72.300781 106.5 72.050781 109.773438 72.199219 111.699219 C 72.300781 112.949219 73.773438 113.324219 74.601563 112.5 C 78.101563 108.949219 83.101563 112.300781 83.199219 116.699219 C 83.199219 117 83.300781 117.25 83.425781 117.425781 C 83.023438 119.699219 78.125 118.476563 76.773438 118.175781 Z M 106.851563 115.199219 C 105.851563 115.148438 104.824219 115.199219 103.824219 115.226563 C 101.625 115.300781 99.449219 115.425781 97.273438 115.425781 L 87.699219 115.425781 C 87.898438 115.199219 88 114.851563 87.925781 114.449219 C 86.851563 108.199219 87.523438 101.851563 87 95.550781 C 86.75 92.425781 86.351563 89.300781 85.925781 86.199219 C 85.523438 83.273438 84.648438 80.375 84.625 77.425781 C 84.75 77.425781 84.875 77.398438 85 77.351563 C 87.398438 76.625 90.023438 76.925781 92.5 77.074219 C 94.351563 77.175781 96.125 77.148438 97.976563 77.023438 C 99.75 76.898438 101.574219 76.75 103.351563 77 C 103.800781 77.074219 104.648438 77.175781 104.976563 77.523438 C 105.648438 78.273438 105.476563 79.699219 105.449219 80.625 C 105.375 83.300781 105.574219 85.925781 105.699219 88.601563 C 105.851563 91.625 105.949219 94.648438 106.148438 97.648438 C 106.574219 103.550781 107.074219 109.425781 107.824219 115.273438 C 107.5 115.273438 107.125 115.226563 106.851563 115.199219 Z M 119.050781 111.726563 C 119.023438 112.476563 118.773438 113.226563 118.625 113.949219 C 118.601563 113.976563 118.601563 114 118.601563 114.023438 C 118.523438 114 118.425781 113.976563 118.351563 113.949219 C 115.851563 113.398438 113.074219 113.976563 110.601563 114.773438 C 109.800781 108.550781 109.273438 102.300781 108.875 96.050781 C 108.648438 92.726563 108.574219 89.398438 108.398438 86.101563 C 108.324219 84.726563 108.148438 83.351563 108.199219 81.976563 C 108.25 80.601563 108.375 79.226563 108.101563 77.875 C 107.175781 73.523438 101.824219 74.023438 98.398438 74.25 C 96.351563 74.375 94.351563 74.476563 92.300781 74.351563 C 89.574219 74.175781 86.824219 73.976563 84.175781 74.773438 C 83.976563 74.824219 83.824219 74.925781 83.699219 75.023438 C 82.949219 74.851563 82.074219 75.175781 82.023438 76.074219 C 82.023438 76.199219 82.023438 76.324219 82 76.449219 L 82 76.574219 C 81.898438 79.625 82.574219 82.550781 83.101563 85.550781 C 83.675781 88.773438 83.976563 92.074219 84.273438 95.324219 C 84.800781 101.050781 84.273438 106.851563 84.949219 112.550781 C 84.148438 111.074219 82.898438 109.824219 81.324219 109.023438 C 79.148438 107.898438 76.773438 108.050781 74.75 109.101563 C 74.398438 106.574219 73.601563 104.300781 70.726563 103.375 C 67.574219 102.375 64.023438 103.726563 61.5 105.824219 C 58.25 102.300781 51.75 100.023438 48.375 104.125 C 45.976563 102 42.476563 101.351563 39.875 103.199219 C 38.074219 100.449219 36.023438 97.851563 32.25 98.5 C 30.101563 98.875 28 100 27.300781 102.175781 C 26.851563 103.574219 27.023438 105.074219 27.148438 106.550781 C 24.148438 106.925781 21.398438 108.398438 19.898438 110.773438 C 19.773438 108.851563 19.976563 106.800781 19.976563 105 C 19.976563 101.074219 19.824219 97.199219 19.5 93.300781 C 19.199219 89.449219 18.949219 85.574219 18.699219 81.726563 C 18.476563 78.449219 17.976563 75.199219 17.949219 71.925781 C 18.5 72 19.023438 72.074219 19.523438 72.125 C 24.398438 72.625 28.773438 70.5 32.699219 67.800781 C 39.199219 74.074219 52.023438 75.976563 58.074219 68.550781 C 62.199219 72.125 67.425781 74.699219 72.875 75.101563 C 78.675781 75.523438 83.675781 73 86.976563 68.425781 C 88.523438 69.574219 89.949219 70.898438 91.75 71.75 C 94.101563 72.851563 96.449219 73.300781 99.050781 73.074219 C 103.101563 72.75 106.875 70.398438 109.175781 67.101563 C 109.273438 67.101563 109.398438 67.074219 109.5 67.023438 C 112.351563 68.699219 115.5 69.875 118.824219 69.875 C 118.625 70.351563 118.523438 70.875 118.476563 71.351563 C 118.300781 72.800781 118.324219 74.273438 118.351563 75.726563 C 118.425781 78.949219 118.726563 82.175781 118.925781 85.375 C 119.226563 90.050781 119 94.773438 119 99.449219 C 119 102.324219 118.925781 105.226563 119.023438 108.101563 C 119.023438 109.324219 119.101563 110.523438 119.050781 111.726563 Z M 126.023438 62.351563 C 125.699219 62.675781 125.574219 63.023438 125.625 63.375 C 124.050781 65.273438 122.050781 66.824219 119.476563 67.101563 C 116.148438 67.476563 112.875 65.949219 110.101563 64.226563 C 109.800781 61.75 108.574219 59.300781 108.050781 56.925781 C 107.125 52.824219 105.351563 48.976563 104.375 44.898438 C 103.5 41.25 103.101563 37.425781 102 33.851563 C 101.601563 32.550781 101.199219 31.25 100.875 29.949219 C 100.726563 29.351563 100.273438 27.601563 100.601563 27.175781 C 100.773438 26.925781 100.875 26.648438 100.875 26.398438 C 104.101563 26.398438 107.300781 26.375 110.523438 26.375 L 112.699219 26.375 C 112.75 29.226563 114 31.976563 115.148438 34.523438 C 116.523438 37.550781 117.601563 40.675781 118.824219 43.773438 C 120.050781 46.898438 121.074219 49.925781 122.773438 52.824219 C 124.148438 55.199219 125.625 57.550781 126.449219 60.175781 C 126.148438 60.675781 126.199219 61.398438 126.601563 61.875 C 126.398438 62.023438 126.226563 62.175781 126.023438 62.351563 Z "/>
  </g>
</svg>