<?xml version="1.0" encoding="utf-8"?>
<svg viewBox="102.158 115.77 129.622 129.622" width="129.622" height="129.622" xmlns="http://www.w3.org/2000/svg">
  <circle style="fill: rgb(142, 68, 173);" cx="166.969" cy="180.581" r="64.811"/>
  <g id="surface1" transform="matrix(1, 0, 0, 1, 102.969147, 108.867516)">
    <path style=" stroke:none;fill-rule:nonzero;fill:#4FC3F7;fill-opacity:1;" d="M 77.332031 82.667969 C 77.332031 82.667969 74.667969 93.332031 64 93.332031 C 53.332031 93.332031 50.667969 82.667969 50.667969 82.667969 C 50.667969 82.667969 21.332031 87.960938 21.332031 117.332031 L 106.667969 117.332031 C 106.667969 88.066406 77.332031 82.667969 77.332031 82.667969 "/>
    <path style=" stroke:none;fill-rule:nonzero;fill:#FF9800;fill-opacity:1;" d="M 64 98.667969 C 50.667969 98.667969 50.667969 82.667969 50.667969 82.667969 L 50.667969 66.667969 L 77.332031 66.667969 L 77.332031 82.667969 C 77.332031 82.667969 77.332031 98.667969 64 98.667969 Z "/>
    <path style=" stroke:none;fill-rule:nonzero;fill:#FFA726;fill-opacity:1;" d="M 93.332031 50.667969 C 93.332031 53.613281 90.945313 56 88 56 C 85.054688 56 82.667969 53.613281 82.667969 50.667969 C 82.667969 47.71875 85.054688 45.332031 88 45.332031 C 90.945313 45.332031 93.332031 47.71875 93.332031 50.667969 "/>
    <path style=" stroke:none;fill-rule:nonzero;fill:#FFA726;fill-opacity:1;" d="M 45.332031 50.667969 C 45.332031 53.613281 42.945313 56 40 56 C 37.054688 56 34.667969 53.613281 34.667969 50.667969 C 34.667969 47.71875 37.054688 45.332031 40 45.332031 C 42.945313 45.332031 45.332031 47.71875 45.332031 50.667969 "/>
    <path style=" stroke:none;fill-rule:nonzero;fill:#FFB74D;fill-opacity:1;" d="M 88 34.667969 C 88 14.308594 40 21.410156 40 34.667969 L 40 53.332031 C 40 66.589844 50.742188 77.332031 64 77.332031 C 77.257813 77.332031 88 66.589844 88 53.332031 Z "/>
    <path style=" stroke:none;fill-rule:nonzero;fill:#424242;fill-opacity:1;" d="M 64 10.667969 C 47.800781 10.667969 37.332031 23.800781 37.332031 40 L 37.332031 46.089844 L 42.667969 50.667969 L 42.667969 37.332031 L 74.667969 26.667969 L 85.332031 37.332031 L 85.332031 50.667969 L 90.667969 46.023438 L 90.667969 40 C 90.667969 29.265625 87.898438 18.625 74.667969 16 L 72 10.667969 Z "/>
    <path style=" stroke:none;fill-rule:nonzero;fill:#784719;fill-opacity:1;" d="M 72 50.667969 C 72 52.136719 73.195313 53.332031 74.667969 53.332031 C 76.136719 53.332031 77.332031 52.136719 77.332031 50.667969 C 77.332031 49.195313 76.136719 48 74.667969 48 C 73.195313 48 72 49.195313 72 50.667969 "/>
    <path style=" stroke:none;fill-rule:nonzero;fill:#784719;fill-opacity:1;" d="M 50.667969 50.667969 C 50.667969 52.136719 51.863281 53.332031 53.332031 53.332031 C 54.804688 53.332031 56 52.136719 56 50.667969 C 56 49.195313 54.804688 48 53.332031 48 C 51.863281 48 50.667969 49.195313 50.667969 50.667969 "/>
    <path style=" stroke:none;fill-rule:nonzero;fill:#01579B;fill-opacity:1;" d="M 64 98.667969 C 77.332031 98.667969 81.988281 88.1875 82.535156 84.191406 C 79.449219 83.0625 77.332031 82.667969 77.332031 82.667969 C 77.332031 82.667969 74.667969 93.332031 64 93.332031 C 53.332031 93.332031 50.667969 82.667969 50.667969 82.667969 C 50.667969 82.667969 48.550781 83.054688 45.460938 84.175781 C 46.003906 88.164063 50.667969 98.667969 64 98.667969 Z "/>
  </g>
  <g id="g-1" transform="matrix(1, 0, 0, 1, 102.969147, 108.867516)">
    <path style=" stroke:none;fill-rule:nonzero;fill:#FF9800;fill-opacity:1;" d="M 64 98.667969 L 50.667969 82.667969 L 50.667969 66.667969 L 77.332031 66.667969 L 77.332031 82.667969 Z "/>
    <path style=" stroke:none;fill-rule:nonzero;fill:#FFA726;fill-opacity:1;" d="M 93.332031 50.667969 C 93.332031 53.613281 90.945313 56 88 56 C 85.054688 56 82.667969 53.613281 82.667969 50.667969 C 82.667969 47.722656 85.054688 45.332031 88 45.332031 C 90.945313 45.332031 93.332031 47.722656 93.332031 50.667969 Z "/>
    <path style=" stroke:none;fill-rule:nonzero;fill:#FFA726;fill-opacity:1;" d="M 45.332031 50.667969 C 45.332031 53.613281 42.945313 56 40 56 C 37.054688 56 34.667969 53.613281 34.667969 50.667969 C 34.667969 47.722656 37.054688 45.332031 40 45.332031 C 42.945313 45.332031 45.332031 47.722656 45.332031 50.667969 Z "/>
    <path style=" stroke:none;fill-rule:nonzero;fill:#FFB74D;fill-opacity:1;" d="M 88 34.667969 C 88 14.398438 40 21.332031 40 34.667969 C 40 37.601563 40 50.398438 40 53.332031 C 40 66.667969 50.667969 77.332031 64 77.332031 C 77.332031 77.332031 88 66.667969 88 53.332031 C 88 50.398438 88 37.601563 88 34.667969 Z "/>
    <path style=" stroke:none;fill-rule:nonzero;fill:#FF5722;fill-opacity:1;" d="M 64 10.667969 C 47.734375 10.667969 37.332031 23.734375 37.332031 40 C 37.332031 42.132813 37.332031 46.132813 37.332031 46.132813 L 42.667969 50.667969 L 42.667969 37.332031 L 74.667969 26.667969 L 85.332031 37.332031 L 85.332031 50.667969 L 90.667969 46.132813 C 90.667969 46.132813 90.667969 42.132813 90.667969 40 C 90.667969 29.332031 88 18.667969 74.667969 16 L 72 10.667969 Z "/>
    <path style=" stroke:none;fill-rule:nonzero;fill:#784719;fill-opacity:1;" d="M 77.332031 50.667969 C 77.332031 52.140625 76.140625 53.332031 74.667969 53.332031 C 73.195313 53.332031 72 52.140625 72 50.667969 C 72 49.195313 73.195313 48 74.667969 48 C 76.140625 48 77.332031 49.195313 77.332031 50.667969 Z "/>
    <path style=" stroke:none;fill-rule:nonzero;fill:#784719;fill-opacity:1;" d="M 56 50.667969 C 56 52.140625 54.804688 53.332031 53.332031 53.332031 C 51.859375 53.332031 50.667969 52.140625 50.667969 50.667969 C 50.667969 49.195313 51.859375 48 53.332031 48 C 54.804688 48 56 49.195313 56 50.667969 Z "/>
    <path style=" stroke:none;fill-rule:nonzero;fill:#CFD8DC;fill-opacity:1;" d="M 77.332031 82.667969 L 64 85.332031 L 50.667969 82.667969 C 50.667969 82.667969 21.332031 88 21.332031 117.332031 L 106.667969 117.332031 C 106.667969 88 77.332031 82.667969 77.332031 82.667969 Z "/>
    <path style=" stroke:none;fill-rule:nonzero;fill:#3F51B5;fill-opacity:1;" d="M 61.332031 93.332031 L 58.667969 117.332031 L 69.332031 117.332031 L 66.667969 93.332031 L 69.332031 90.667969 L 64 85.332031 L 58.667969 90.667969 Z "/>
  </g>
</svg>