<?xml version="1.0" standalone="no"?>
<!DOCTYPE svg PUBLIC "-//W3C//DTD SVG 20010904//EN"
 "http://www.w3.org/TR/2001/REC-SVG-20010904/DTD/svg10.dtd">
<svg version="1.0" xmlns="http://www.w3.org/2000/svg"
 width="520.000000pt" height="520.000000pt" viewBox="0 0 520.000000 520.000000"
 preserveAspectRatio="xMidYMid meet">
<metadata>
Created by potrace 1.11, written by Peter Selinger 2001-2013
</metadata>
<g transform="translate(0.000000,520.000000) scale(0.100000,-0.100000)"
fill="#000000" stroke="none">
<path d="M2438 5075 c-2 -1 -28 -5 -58 -9 -30 -3 -66 -8 -80 -11 -14 -3 -38
-8 -55 -10 -44 -8 -161 -41 -230 -66 -61 -21 -295 -135 -305 -147 -3 -4 -31
-24 -62 -45 -155 -100 -336 -286 -444 -454 -70 -109 -184 -343 -167 -343 3 0
1 -6 -4 -12 -16 -20 -65 -205 -67 -249 0 -21 -3 -39 -6 -39 -6 0 -8 -18 -14
-111 -2 -20 -5 -40 -8 -45 -4 -8 -3 -219 1 -219 1 0 4 -29 7 -65 2 -36 6 -78
9 -95 2 -16 7 -50 10 -75 16 -117 38 -220 82 -380 30 -111 118 -372 140 -413
8 -16 16 -37 18 -46 2 -10 13 -39 25 -67 12 -27 29 -65 38 -84 27 -62 122
-265 132 -280 5 -8 25 -46 45 -85 19 -38 51 -97 70 -130 19 -33 38 -67 42 -75
14 -30 188 -318 245 -404 32 -49 58 -91 58 -93 0 -2 5 -9 10 -16 6 -7 67 -93
136 -192 226 -322 486 -649 529 -665 47 -18 102 6 141 61 18 25 85 110 123
154 9 11 63 83 121 160 58 77 108 145 112 150 21 27 98 137 133 190 22 33 43
62 46 65 10 9 259 397 259 404 0 3 22 41 50 86 27 45 50 83 50 84 0 2 24 46
53 97 29 52 73 135 97 184 25 50 48 92 53 93 4 2 7 9 7 16 0 7 11 33 23 57 32
59 164 369 183 427 8 26 19 56 24 67 12 26 70 204 75 230 2 11 4 20 5 20 1 0
3 7 6 15 10 38 45 177 49 195 2 11 6 30 9 41 4 22 11 64 22 132 3 20 7 48 9
62 17 100 23 329 12 455 -3 33 -6 60 -7 60 -1 0 -3 11 -4 25 -2 14 -8 50 -15
80 -7 30 -15 65 -17 78 -9 44 -56 187 -66 200 -6 6 -8 12 -5 12 9 0 -91 198
-124 246 -16 23 -29 47 -29 53 0 6 -4 11 -10 11 -5 0 -10 4 -10 10 0 5 -6 18
-14 27 -127 160 -222 256 -336 342 -41 31 -76 59 -78 64 -2 4 -8 7 -14 7 -5 0
-28 13 -51 29 -62 42 -267 137 -337 156 -3 1 -12 4 -20 7 -31 12 -139 38 -225
54 -74 14 -386 29 -397 19z"/>
</g>
</svg>
